<!-- <svg id="Layer_1" data-name="Layer 1" xmlns="http://www.w3.org/2000/svg" xmlns:xlink="http://www.w3.org/1999/xlink" width="250" height="150" viewBox="0 0 250 150"><defs><radialGradient id="radial-gradient" cx="51.54" cy="135.67" r="267.16" gradientUnits="userSpaceOnUse"><stop offset="0" stop-color="#ffb948"/><stop offset="0.32" stop-color="#ee2a7b"/><stop offset="1" stop-color="#002aff"/></radialGradient></defs><title>rog.ie</title><path d="M102.1,78c0,24.91,31.49,24.83,31.49-4.47,0-6.15-4.75-16.64-14.85-16.64C109.3,56.87,102.1,66.24,102.1,78Zm22.7-.91c0,14.37-13.24,13.34-13.24,1.35C111.56,65.36,124.8,65.59,124.8,77.07ZM107.39,99.52l.58.76c-13.8,9.81-29.59,3.24-38.8-8.06a152.72,152.72,0,0,0,5.34,29.1s-3.82,2.22-7.58,4.71c-4.26-13.71-7.36-24.79-9.55-36.87-3.89,1.6-7.8,3.06-11.66,4.35-.44-2.15-.87-4.15-1.28-6q6.24-2.35,11.85-5c-1.8-12.13-2.8-25.81-3.2-44.33a145.06,145.06,0,0,1,17.8-7.84A347.84,347.84,0,0,0,68.32,76.2c38.91-23,45.93-53.9,12.82-53.9-20.77,0-56.64,16.12-77,30.22C4.19,52.52,2,41.8,0,29.23c9.17-4.74,42.5-20.3,75-20.3,27.68,0,39.58,11.4,39.58,24.67,0,19.93-20.46,37.57-44.49,49.74,6.54,9.21,17.49,11.66,28.17,5A19.61,19.61,0,0,0,107.39,99.52ZM166.58,87.1c2.78-36.22,2.72-40,3.9-50.53,0,0-7.28,1-13.16,2.39.15,2.61.27,5.24.36,7.91a11.69,11.69,0,0,0-5.88-1.51c-20.09,0-19.88,36.58-2.12,36.58a11.48,11.48,0,0,0,7.69-3q-.24,5.2-.6,10.8c-28.11,8.73-44.27,25-44.27,37.12,0,8.57,4.67,14.23,15.18,14.23,16.29,0,31.24-17.33,35.52-35.58a68.78,68.78,0,0,0-9.58,1.58c-8.92,22.5-17.68,28-26.58,28-4.55,0-7.63-2.32-7.63-7,0-13.85,25.05-29.48,58.46-29.48,27.18,0,46.57,6.62,46.57,6.62,3-14.16,4-19.77,4-19.77C223.38,84.5,194.16,80.89,166.58,87.1ZM153.25,73.79c-9.57,0-8.8-17.93-.28-17.93a6.31,6.31,0,0,1,4.89,2.28c0,4.38-.07,8.91-.22,13.68A5.72,5.72,0,0,1,153.25,73.79Zm23.21-47.84a7.64,7.64,0,1,1,15.21,1.21,7.64,7.64,0,1,1-15.21-1.21ZM190.3,54.72A38,38,0,0,0,195.53,57c0,9.08,5.81,16.26,14,16.26,5.66,0,11.14-4.11,14-7.6l-2.81-3.54s-3.8,4.13-7.8,4.13c-3.57,0-7-2-7.67-7.12,10.33.82,20.34-4.68,20.34-14.59,0-5.66-4.33-9.8-10.36-9.8-9,0-16.84,8.46-19.05,17.39A38.94,38.94,0,0,1,192,50.39C191.68,51.13,190.3,54.72,190.3,54.72Zm27.38-9c0,3.67-3.81,8.34-12.26,8C207.43,41.77,217.68,38.82,217.68,45.7ZM174.22,57.94a69.47,69.47,0,0,1,2.24-18.22l.39-.07a17.13,17.13,0,0,0,12.25-.52c-2.94,7.92-4.53,15.47-4.53,21.43,0,7.18,4.09,9,8.24,3.41a17.13,17.13,0,0,0,2,4.64c-2.5,3.62-5.82,5.87-9.76,5.87C178.56,74.47,174.22,67.79,174.22,57.94Z" fill="url(#radial-gradient)"/></svg> -->

<svg id="Layer_1" data-name="Layer 1" xmlns="http://www.w3.org/2000/svg" xmlns:xlink="http://www.w3.org/1999/xlink" width="250" height="150" viewBox="0 0 250 150"><defs><radialGradient id="radial-gradient" cx="51.54" cy="135.67" r="267.16" gradientUnits="userSpaceOnUse"><stop offset="0" stop-color="#ffb948"/><stop offset="0.32" stop-color="#ee2a7b"/><stop offset="1" stop-color="#002aff"/></radialGradient></defs><title>rog.ie</title><path d="M65.5,89.2c0.3,0.5,0.5,1.2,0.9,1.9c0.3,0.7,0.7,1.5,1.1,2.5c0.2,0.3,0.4,0.6,0.4,0.8
c0.1,0.2,0.1,0.5,0.1,0.7c-2.5,1.2-5.2,2.3-8,3.2c-2.8,1-5.7,1.9-8.8,2.7c-0.8,0.2-1.8,0.4-2.9,0.7c-1.1,0.2-2.4,0.5-3.8,0.9
c-1.1,0.4-2.5,0.9-4.2,1.5c-1.7,0.6-3.6,1.2-5.8,1.7c-1.4,0.4-2.8,0.7-4.2,1.1c-1.4,0.3-2.8,0.7-4.2,1c-1.7,0.4-3.3,0.7-4.8,1
c-1.5,0.2-2.7,0.3-3.7,0.3c-2.7,0-4.7-0.5-6-1.5c-1.3-1-2-2.5-2-4.6c0-2.1,0.4-4,1.1-5.9c0.7-1.9,1.9-3.7,3.4-5.4
c0.4-0.7,1-1.4,1.7-2.3c0.7-0.8,1.5-1.8,2.4-2.9c0.6-0.5,1.5-1.3,2.5-2.4c1-1.1,2.2-2.6,3.7-4.5c1-1.2,2-2.4,3-3.7
c1-1.3,2-2.6,3-3.9c0.5-0.6,1-1.4,1.7-2.3c0.7-1,1.5-2.1,2.4-3.4c0.5-0.5,1.2-1.1,1.9-1.9c0.7-0.8,1.5-1.7,2.3-2.7
c1.2-1.5,2.4-3.3,3.8-5.2c1.3-2,2.7-4.1,4.2-6.5c2.4-3.6,4.1-6.6,5.3-8.9c1.2-2.3,1.7-3.9,1.7-4.9c0-0.5-0.3-1.1-1-1.7
C52,34,51,33.4,49.6,32.8c-1.2-0.5-2.2-0.9-3.1-1.2c-0.9-0.3-1.7-0.4-2.3-0.5L39.3,31c-0.6-0.2-1.1-0.3-1.7-0.5
c-0.6-0.2-1.2-0.4-2-0.5l-3.1,1c-0.8-0.3-1.5-0.4-2.2-0.6c-0.7-0.1-1.3-0.2-1.9-0.2c-2.5,0.2-4.9,0.4-7,0.6l-1.7-0.6
c-0.2-0.2-0.4-0.5-0.5-1c-0.1-0.5-0.3-1.1-0.5-1.9c0.3-0.5,0.7-1.3,1.1-2.1c0.5-0.9,1-1.8,1.5-2.9c0.2-0.6,0.3-1,0.3-1.3
c0.5-1.5,1.4-2.6,2.6-3.4c1.2-0.8,2.8-1.2,4.9-1.2c1,0,1.9,0,2.8,0.1c0.8,0.1,1.6,0.2,2.3,0.3l0.9,0.7c0.8-0.2,1.5-0.4,2.1-0.6
c0.5-0.2,1-0.3,1.3-0.3c2.4,0.5,4.9,1,7.5,1.5c0.7,0,1.6,0.1,2.7,0.3c1.1,0.1,2.3,0.3,3.6,0.6c0.6,0.4,1.3,0.8,2.3,1.2
c0.9,0.4,2,0.9,3.2,1.5c1.6,0.6,3,1.4,4.2,2.4c1.2,1,2.2,2.2,2.9,3.5c0.7,1.1,1.2,2.1,1.5,3.1c0.3,1,0.4,1.9,0.4,2.8
c0,1.4-0.2,2.7-0.5,3.9c-0.3,1.2-0.8,2.3-1.5,3.2l-0.8,2.5c-0.1,0.3-0.3,0.8-0.6,1.4c-0.3,0.6-0.7,1.2-1.2,1.8c-0.7,1-1.5,2-2.3,3
c-0.2,0.5-0.6,1.1-1.1,1.7c-0.6,0.7-1.2,1.3-2.1,2.1c-0.2,0.1-0.4,0.3-0.6,0.6c-0.2,0.3-0.5,0.7-0.7,1.1c-0.5,1-1.2,2.1-2.2,3.4
c-1,1.3-2.2,2.8-3.6,4.6c-1.9,2.2-3.4,4-4.5,5.3c-1.1,1.3-1.8,2.3-2.3,2.8c-0.5,0.4-1,0.9-1.5,1.3c-0.5,0.5-1.1,1-1.6,1.6
l-0.8,1.9c-0.2,0.5-1,1.6-2.2,3.3c-1.3,1.6-3,3.8-5.3,6.6c-2.2,2.5-3.9,4.6-4.9,6.2c-1.1,1.6-1.6,2.7-1.6,3.3
c0,0.3,0.2,0.5,0.5,0.6l2.5-0.4c0.6,0.1,1.2,0.2,1.7,0.3c1.1-0.2,2.1-0.3,3.2-0.3l2.2,0.6c1.2-0.4,2.2-0.6,3.1-0.8
c0.9-0.1,1.7-0.2,2.3-0.2c2.2,0,4.2-0.1,6-0.4c1.9-0.3,3.6-0.8,5.1-1.4c0.8-0.1,1.9-0.3,3.2-0.5c1.3-0.3,2.7-0.6,4.4-1
c0.5-0.2,1-0.4,1.5-0.6s1-0.4,1.6-0.6c0.7-0.1,1.3-0.3,1.9-0.4C64.6,89.5,65.1,89.4,65.5,89.2zM65.5,89.2c0.9-0.8,1.6-1.4,2.2-1.9c0.5-0.5,0.9-0.9,1.2-1.2c0.7-0.6,1.2-1.2,1.6-1.8
c0.4-0.6,0.7-1.1,0.7-1.6c0.4-1.4,0.8-3.2,1.3-5.4c0.5-2.2,1.2-4.6,2-7.5c0.4-0.8,0.8-1.9,1.2-3.2c0.4-1.3,0.9-2.7,1.4-4.3
c0.5-2.1,1.1-4,1.9-5.8c0.8-1.7,1.6-3.3,2.5-4.7c0.3-0.4,0.6-0.9,0.9-1.4c0.3-0.6,0.6-1.2,0.9-2c0.3-0.7,0.7-1.5,1.2-2.4
c0.5-0.9,1.1-2,1.8-3.2c1.7-2.5,3.3-4.7,4.6-6.5c1.3-1.8,2.4-3.3,3.2-4.4c1.5-1.8,3.1-3.5,4.6-5.1c1.5-1.6,3.1-3.1,4.7-4.4
c1.4-1.2,2.7-2.1,3.7-2.7c1.1-0.6,1.9-0.9,2.5-0.9c0.6,0.5,1,1,1.3,1.4c0.3,0,0.6,0,0.9-0.1c1.1,0,1.9,0.4,2.4,1.3
c0.5,0.9,0.8,2.2,0.8,3.9c0,0.4-0.1,0.9-0.2,1.5c-0.1,0.6-0.3,1.4-0.5,2.3c-0.3,0.3-0.5,0.7-0.6,1.1c-0.1,0.5-0.2,0.9-0.3,1.4
c0,0.6-0.1,1.1-0.2,1.5c-0.1,0.4-0.2,0.8-0.3,1.1c-0.6,1-1.1,2.3-1.8,3.7s-1.3,3.2-2,5.1c-0.4,0.7-1,1.7-1.6,2.9
c-0.6,1.2-1.4,2.5-2.3,3.9c-0.4,0.8-1,1.8-1.6,3c-0.7,1.2-1.5,2.6-2.5,4.2c-0.3,0.6-0.7,1.2-1.3,1.9c-0.6,0.7-1.3,1.5-2.2,2.4
c-0.3,0.7-1,1.8-2.1,3.5c-1.2,1.6-2.8,3.8-4.9,6.4c-1,1.3-2.3,2.9-3.9,4.9c-1.6,1.9-3.5,4.2-5.6,6.9c-0.8,3.2-1.4,6-1.8,8.5
c-0.4,2.5-0.6,4.6-0.6,6.4c0,0.7,0.1,1.3,0.2,1.6c0.1,0.4,0.3,0.5,0.6,0.5c0.2-0.3,0.5-0.6,0.9-1c0.4-0.4,0.8-0.8,1.2-1.3
c0.8-0.7,1.7-2,2.8-4c1.1-1.9,2.3-4.5,3.7-7.5c1.2-2.8,2.3-4.9,3.3-6.4c1-1.5,1.8-2.4,2.4-2.7l2.2-1c0.4-0.2,0.8-0.3,1.1-0.4
c0.3-0.1,0.6-0.2,0.8-0.2c0.5,0,1.1,0.3,1.5,1c0.5,0.7,0.8,1.6,1.1,2.8c0.5,2.2,1,3.8,1.3,5c0.3,1.2,0.5,1.8,0.6,2.1
c0.5,1.3,1.2,2.2,2,2.8c0.8,0.6,1.7,0.9,2.8,0.9c1.3-0.2,2.9-0.5,4.6-0.9c0.3,0.8,0.7,1.8,1.2,2.7c0.4,1,0.9,2,1.4,3.1
c-1,0.7-2,1.3-3.1,2c-1,0.6-2.1,1.3-3.1,1.9c-0.7,0.4-1.6,0.7-2.9,0.9c-1.3,0.2-2.7,0.3-4.4,0.3c-2.6,0-4.6-1.2-6-3.6
c-1.4-2.4-2.3-3.6-2.6-3.6h-0.4c-0.7,0.8-1.4,1.7-2.1,2.6c-0.7,0.9-1.5,1.8-2.2,2.8c-0.5,1-1.1,2.1-2,3.4c-0.8,1.3-1.9,2.7-3,4.2
c-1.4,1.7-2.6,3-3.7,3.8c-1.1,0.8-2,1.3-2.7,1.3c-1.6,0-2.9-0.2-3.8-0.5c-0.9-0.4-1.4-0.9-1.6-1.6c-0.5-2.4-0.9-4.4-1.2-6.2
c-0.3-1.8-0.4-3.2-0.4-4.5c0-0.4,0-0.7,0.1-1c0-0.3,0.1-0.6,0.1-0.8c0.1-0.5,0.3-1.1,0.4-1.8c0-0.2-0.1-0.4-0.2-0.5
c-0.1-0.1-0.3-0.2-0.5-0.2c-0.1,0.2-0.3,0.4-0.5,0.6c-0.2,0.2-0.5,0.4-0.9,0.7c-0.2-0.5-0.5-1.3-0.9-2.3
C66.7,91.8,66.1,90.6,65.5,89.2z M106.7,30.6c-0.5,0-1.4,0.8-2.8,2.5c-1.4,1.7-3.2,4.1-5.3,7.4c-1.2,1.8-2.4,3.6-3.6,5.4
c-1.2,1.8-2.3,3.6-3.5,5.3c-0.5,0.5-0.9,1-1.1,1.5c-0.2,0.5-0.3,1-0.3,1.6c-0.8,2.4-1.7,4.6-2.5,6.7c-0.8,2.2-1.4,4-1.9,5.2
c-0.5,1.2-0.8,1.9-0.9,2.2l0.3,0.3c0.8-0.8,1.6-1.6,2.2-2.4c0.8-1,1.9-2.2,3.1-3.8c1.2-1.5,2.6-3.3,4.1-5.4
c1.5-1.9,3.1-4.4,4.7-7.4c1.6-3,3.3-6.4,5.2-10.3c1.1-2.1,1.8-3.8,2.4-5.1c0.5-1.3,0.8-2.2,0.8-2.7c0-0.3-0.1-0.5-0.2-0.7
C107.2,30.7,107,30.6,106.7,30.6zM112,89.2c0.5-0.9,1.2-1.8,2-2.7c0.8-0.9,1.8-1.8,3-2.8c0.1-0.8,0.3-1.7,0.4-2.5c0.1-0.8,0.2-1.7,0.3-2.5
c0.1-0.6,0.3-1.3,0.6-2.1c0.3-0.8,0.6-1.7,0.9-2.6c0.4-0.9,0.9-2.1,1.6-3.5c0.7-1.4,1.5-3,2.6-4.7c0.9-1,1.8-2,2.8-3.2
c1-1.2,1.9-2.3,2.9-3.5c0.5-0.4,1-0.7,1.5-1.1c0.5-0.3,1.1-0.7,1.6-1.1c0.5-0.2,1.1-0.3,1.7-0.4c0.6-0.1,1.3-0.2,2.1-0.2
c1.1,0,1.9,0.1,2.6,0.3c0.7,0.2,1.2,0.6,1.6,1.1c0.3,0.3,0.6,0.8,0.9,1.5c0.3,0.7,0.5,1.5,0.8,2.5c0.1,0.8,0.3,1.8,0.4,2.8
c0-0.3-0.1-0.1-0.2,0.3c-0.1,0.5-0.4,1.2-0.7,2.2l-0.6,2c-0.6,2-1.9,4.4-4,7c-2.1,2.7-4.9,5.7-8.4,9.1c-0.3,0.3-0.6,0.7-0.8,1.1
c-0.2,0.4-0.3,0.9-0.3,1.4c0,0.9,0.2,1.7,0.5,2.3c0.3,0.7,0.8,1.2,1.4,1.5c0.3,0.3,0.9,0.5,1.6,0.8s1.6,0.5,2.6,0.7
c1.6-0.1,3.1-0.4,4.5-0.8c1.4-0.4,2.6-0.9,3.6-1.5c0.2-0.1,0.5-0.3,1-0.5c0.5-0.2,0.9-0.5,1.4-0.9c0.5,1.2,1,2.3,1.5,3.3
c0.4,1,0.8,1.8,1,2.5c-2.4,2.4-4.6,4.2-6.6,5.4c-2,1.2-3.8,1.8-5.4,1.8c-0.7,0.4-1.4,0.7-2.3,0.9c-0.9,0.2-1.9,0.3-3.1,0.3
c-1.6,0-2.9-0.2-4.2-0.7c-1.2-0.5-2.2-1.1-3-2c-0.4-0.4-0.8-1-1.3-1.9c-0.4-0.8-0.9-1.8-1.3-2.9c-0.4-0.9-0.7-1.6-1.1-2.1
c-0.3-0.4-0.7-0.7-1.1-0.7c-0.3,0-0.7,0.2-1.1,0.5c-0.4,0.3-0.9,0.8-1.4,1.4c-0.2-0.6-0.5-1.4-0.9-2.3
C113.2,91.7,112.7,90.6,112,89.2z M132.3,68.6c-0.9,0-2.2,1.2-3.7,3.6c-1.6,2.4-2.3,4.2-2.3,5.4c0,0.3,0.1,0.4,0.2,0.5
s0.3,0.2,0.7,0.2c0.5,0,0.8-0.2,1.1-0.7c0.3-0.5,0.6-0.9,0.8-1.4c0.5-0.4,0.9-0.9,1.4-1.4c0.4-0.5,0.9-1,1.3-1.4
c0.5-0.6,0.9-1.2,1.1-1.8c0.3-0.6,0.4-1.2,0.4-1.8c0-0.4-0.1-0.7-0.2-0.9C132.8,68.7,132.6,68.6,132.3,68.6zM143.9,89.2c0.2-0.3,0.4-0.6,0.7-1c0.3-0.4,0.6-0.8,1-1.3c0.4-0.3,1-0.8,1.6-1.5c0.7-0.6,1.4-1.4,2.3-2.2
c0.8-0.8,1.7-1.9,2.8-3.1c1.1-1.2,2.4-2.8,4-4.5c0.7-0.7,1.5-1.6,2.5-2.8c1-1.1,2.2-2.5,3.6-4c1.2-1.4,2.5-2.4,3.8-3.1
c1.4-0.7,2.8-1,4.3-1c1.5,0,2.6,0.5,3.4,1.4c0.7,1,1.1,2.3,1.1,4.2c0,1-0.4,2.8-1.1,5.6c-0.7,2.7-1.8,6.4-3.4,10.9
c-0.4,0.8-0.7,1.6-1.1,2.4c-0.3,0.5-0.4,1-0.5,1.5c-0.1,0.4-0.1,0.7-0.1,1c0,0.3,0.1,0.6,0.4,1c0.2-0.1,0.4-0.3,0.6-0.5
c0.2-0.2,0.4-0.5,0.7-0.8c0.3-0.6,0.9-1.3,1.6-2c0.7-0.7,1.5-1.5,2.5-2.3c0.4-0.7,0.9-1.4,1.5-2.1c0.6-0.7,1.3-1.3,2.1-1.9
c0.2-0.2,0.4-0.4,0.7-0.8c0.3-0.4,0.6-0.8,1-1.2c0.5-0.5,1.2-1.1,2-1.7c0.8-0.6,1.6-1.2,2.7-1.8c1.1-0.6,2.2-1.1,3.1-1.4
c0.9-0.3,1.7-0.5,2.4-0.5c1.3,0,2.5,0.3,3.5,1c1,0.6,1.9,1.6,2.6,3c0.8,2.6,1.6,5.1,2.4,7.3c0.5,1.3,1,2.3,1.6,2.9
c0.6,0.6,1.2,1,1.9,1c0.5,0,1-0.1,1.5-0.3c0.4-0.2,0.9-0.5,1.2-1l2.5,5.8c-0.7,0.6-1.5,1.2-2.2,1.8c-0.8,0.6-1.5,1.2-2.2,1.8
c-1,0.9-1.9,1.5-2.7,1.9c-0.8,0.4-1.7,0.5-2.5,0.5c-1,0-1.9-0.2-2.8-0.6s-1.6-1.1-2.3-1.9c-0.3-0.3-0.8-1-1.3-1.9
c-0.5-0.9-1.1-2-1.8-3.4c-0.5-0.5-1.2-1.3-1.9-2.2c-0.7-0.9-1.5-2-2.4-3.2l-0.6-0.2c-0.8,0.3-1.6,0.6-2.4,1.1
c-0.8,0.5-1.6,1.2-2.5,2c-1.9,1.7-3.3,2.7-4.1,3.2c-0.8,0.4-1.4,0.9-1.7,1.5c-0.6,1-1.6,2.3-3,3.9c-1.4,1.6-3.2,3.5-5.4,5.7
c-0.5,0.5-1.1,1.1-1.6,1.6c-0.5,0.5-1.1,1-1.6,1.6c-0.5,0.5-1.2,0.8-1.9,1c-0.7,0.2-1.5,0.3-2.3,0.3c-1.7,0-2.6-0.6-2.8-1.7
c-0.1-1.2-0.3-2.3-0.4-3.5c0.6-1.8,1.4-4,2.2-6.7c0.8-2.7,1.7-5.8,2.8-9.3c0-0.2,0.1-0.5,0.2-0.9c0.1-0.4,0.3-0.8,0.5-1.4
c0.2-0.5,0.4-1,0.4-1.4c0.1-0.4,0.1-0.8,0.1-1c0-0.3-0.1-0.5-0.3-0.7s-0.5-0.3-1-0.3c-0.4,0-1,0.3-1.7,0.8
c-0.7,0.5-1.5,1.3-2.5,2.4c-1.2,1.3-2.1,2.3-2.9,3c-0.7,0.7-1.2,1.1-1.5,1.3c-0.4,0.3-0.9,0.7-1.5,1.3c-0.6,0.5-1.2,1.2-1.9,1.8
c-0.1,0.2-0.2,0.4-0.4,0.8c-0.2,0.3-0.4,0.7-0.8,1.1c-0.2-0.6-0.5-1.4-0.9-2.3S144.6,90.6,143.9,89.2zM204.5,89.2c0.3-0.3,0.7-0.8,1.1-1.4c0.4-0.6,1-1.3,1.6-2.1c0.5-0.5,1.2-1.1,1.9-1.9c0.7-0.8,1.5-1.8,2.4-2.9
c0.3-0.7,0.8-1.5,1.2-2.4s1-1.9,1.7-3.1c0.3-1.1,0.8-2.4,1.8-3.9s2.2-3.1,3.9-4.9c2.3-2.6,4.8-5.3,7.3-8.2
c1.3-1.9,2.7-3.4,4.3-4.3c1.5-0.9,3.2-1.4,5-1.4c1.2,0,2.1,0.5,2.7,1.6c0.6,1.1,0.9,2.6,0.9,4.7c0,0.8-0.5,1.9-1.6,3.6
c-1,1.6-2.6,3.7-4.7,6.2c-1.3,1.6-2.7,3.1-4.1,4.7c-1.4,1.5-2.9,3.1-4.2,4.7c-0.6,0.6-1.3,1.2-2,1.9c-0.7,0.7-1.4,1.5-2.3,2.3
c-0.3,0.9-0.5,1.9-0.8,3c0,1.6,0.1,3.1,0.3,4.3c0.2,1.2,0.5,2.2,1,3.1c0.2,0.3,0.7,1,1.4,2c0.7,1,1.6,2.4,2.8,4
c0.3,0.4,0.7,0.8,1.1,1.3c0.4,0.4,0.9,0.8,1.5,1.3c0.6-0.3,1.9-1.4,3.7-3.4c1.8-2,4.3-4.9,7.4-8.5l2.4,5.8c-0.3,0.3-0.9,1-1.7,2.1
c-0.8,1-1.8,2.4-3,4.1c-1.4,1.8-2.7,3.7-4.1,5.7c0,0.4,0.2,0.9,0.6,1.5c0.4,0.5,0.9,1.2,1.5,1.8c1.1,1.3,2,2.9,2.8,4.9
c0.8,2,1.4,4.5,1.8,7.4c0,0.2-0.1,0.5-0.2,1c-0.1,0.5-0.1,1-0.2,1.6c-0.5,4.9-3.5,9.7-9,14.6c-5.5,4.9-10.6,7.3-15.5,7.3
c-2.2,0-4-0.3-5.4-0.9c-1.3-0.6-2.3-1.4-2.8-2.6c-0.2-0.5-0.4-1.6-0.5-3.2c-0.1-1.6-0.2-3.7-0.2-6.4c0-0.3,0.1-0.8,0.3-1.5
c0.2-0.7,0.6-1.7,1.2-3c0.3-0.8,0.7-1.7,1.2-2.6c0.5-0.9,1.1-1.9,1.7-2.9c0.6-0.9,1.2-1.8,1.8-2.6c0.6-0.8,1.2-1.7,1.7-2.5
c1.4-1.5,2.6-2.8,3.6-3.9c0.8-0.8,1.4-1.6,1.9-2.3c0.4-0.7,0.7-1.4,0.7-1.9c-1.4-2-2.9-3.9-4.3-5.7c-1.5-1.9-2.8-3.8-3.7-5.7
s-1.6-3.8-1.9-5.8c0-0.3-0.2-0.7-0.5-1.2c-1,0.9-1.9,1.9-2.9,2.9c-0.2-0.6-0.5-1.4-0.9-2.3S205.2,90.6,204.5,89.2z M225.3,115.8
c-0.3,0-0.8,0.6-1.7,1.8c-0.9,1.2-2.1,2.9-3.7,5.3c-0.9,1.4-1.8,2.8-2.7,4.2c-0.9,1.4-1.8,2.9-2.8,4.2c-0.3,0.5-0.8,1.6-1.5,3.3
c-0.6,1.7-1,2.8-1,3.3c0,0.8,0.2,1.4,0.7,1.8c0.4,0.4,1.1,0.6,2.1,0.6c3.3,0,6.6-1.8,10-5.3c3.4-3.5,5.1-6.9,5.1-10.2
c0-0.7-0.1-1.5-0.4-2.4c-0.3-0.9-0.6-1.9-1-3c-0.5-1.2-1.1-2.1-1.6-2.7C226.4,116.1,225.9,115.8,225.3,115.8z" fill="url(#radial-gradient)"/></svg>
